<svg width="127" height="199" viewBox="0 0 127 199" fill="none" xmlns="http://www.w3.org/2000/svg">
    <mask id="path-1-outside-1_13_1030" maskUnits="userSpaceOnUse" x="0" y="0" width="127" height="199" fill="black">
    <rect fill="white" width="127" height="199"/>
    <path d="M16.688 197V174.6H27.728C30.0533 174.6 31.8347 175.08 33.072 176.04C34.3093 176.979 34.928 178.195 34.928 179.688C34.928 181.117 34.3947 182.248 33.328 183.08C32.2613 183.891 30.8747 184.328 29.168 184.392V186.056C31.1093 186.099 32.6773 186.547 33.872 187.4C35.0667 188.232 35.664 189.469 35.664 191.112C35.664 192.904 34.928 194.333 33.456 195.4C31.984 196.467 29.9787 197 27.44 197H16.688ZM21.552 183.464H26.672C28.9333 183.464 30.064 182.653 30.064 181.032C30.064 180.179 29.776 179.571 29.2 179.208C28.6453 178.824 27.8027 178.632 26.672 178.632H21.552V183.464ZM21.552 192.968H26.736C29.3387 192.968 30.64 192.04 30.64 190.184C30.64 188.307 29.3387 187.368 26.736 187.368H21.552V192.968Z"/>
    <path d="M39.208 197V181H43.304C43.304 182.707 42.8453 184.328 41.928 185.864H43.848C44.2533 184.051 44.8507 182.739 45.64 181.928C46.4293 181.096 47.6347 180.68 49.256 180.68C49.7893 180.68 50.1093 180.691 50.216 180.712V185.384C49.5973 185.32 49.0107 185.288 48.456 185.288C46.7493 185.288 45.5333 185.693 44.808 186.504C44.104 187.315 43.752 188.765 43.752 190.856V197H39.208Z"/>
    <path d="M52.766 178.824V174.536H57.598V178.824H52.766ZM52.926 197V181H57.47V197H52.926Z"/>
    <path d="M73.705 197L68.713 190.344L66.377 192.616V197H61.833V174.6H66.377V181.672C66.377 183.144 66.1957 184.264 65.833 185.032C65.4917 185.8 64.905 186.536 64.073 187.24L65.289 188.552L72.809 181H78.377L71.849 187.336L79.433 197H73.705Z"/>
    <path d="M78.7138 189C78.7138 186.483 79.5031 184.445 81.0817 182.888C82.6604 181.309 84.6764 180.52 87.1298 180.52C89.6044 180.52 91.6204 181.309 93.1777 182.888C94.7564 184.445 95.5458 186.483 95.5458 189C95.5458 191.56 94.7671 193.619 93.2097 195.176C91.6524 196.733 89.6258 197.512 87.1298 197.512C84.7191 197.512 82.7137 196.712 81.1137 195.112C79.5137 193.491 78.7138 191.453 78.7138 189ZM89.8177 192.68C90.4791 191.848 90.8098 190.643 90.8098 189.064C90.8098 187.485 90.4791 186.269 89.8177 185.416C89.1777 184.541 88.2818 184.104 87.1298 184.104C85.9778 184.104 85.0711 184.541 84.4098 185.416C83.7698 186.269 83.4498 187.485 83.4498 189.064C83.4498 190.643 83.7698 191.848 84.4098 192.68C85.0711 193.491 85.9778 193.896 87.1298 193.896C88.2818 193.896 89.1777 193.491 89.8177 192.68Z"/>
    <path d="M98.8643 197V174.6H103.408V197H98.8643Z"/>
    <path d="M107.641 178.824V174.536H112.473V178.824H107.641ZM107.801 197V181H112.345V197H107.801Z"/>
    <path d="M41.09 131.363L5.42611 21.7782L59.4294 4.19881C70.804 0.496103 80.2818 0.00788236 87.8628 2.73415C95.4099 5.35604 100.372 10.3198 102.75 17.6255C105.025 24.6181 104.217 30.9988 100.324 36.7676C96.3967 42.432 90.31 46.7796 82.0636 49.8102L84.7129 57.9508C94.277 55.0683 102.66 54.7633 109.863 57.0356C117.031 59.2036 121.923 64.3057 124.539 72.342C127.392 81.1088 126.067 89.2734 120.565 96.8356C115.063 104.398 106.103 110.2 93.6846 114.243L41.09 131.363ZM43.3316 57.3975L68.3766 49.2447C79.4382 45.6439 83.6782 39.8776 81.0968 31.9457C79.7382 27.7711 77.3614 25.2552 73.9664 24.3981C70.6418 23.4027 66.2142 23.8053 60.6834 25.6057L35.6384 33.7584L43.3316 57.3975ZM58.4633 103.893L83.8214 95.6383C96.5526 91.4939 101.441 84.8818 98.4857 75.8019C95.4967 66.6176 87.6366 64.0976 74.9054 68.242L49.5473 76.4966L58.4633 103.893Z"/>
    <path d="M40.236 134.855L4.57209 25.27L58.5754 7.69065C69.95 3.98794 79.4278 3.49972 87.0088 6.22599C94.5558 8.84788 99.5182 13.8117 101.896 21.1173C104.171 28.1099 103.363 34.4906 99.4697 40.2594C95.5427 45.9238 89.456 50.2714 81.2095 53.3021L83.8589 61.4427C93.423 58.5602 101.806 58.2551 109.009 60.5275C116.177 62.6955 121.069 67.7976 123.685 75.8338C126.538 84.6007 125.213 92.7652 119.711 100.327C114.209 107.89 105.249 113.692 92.8305 117.734L40.236 134.855ZM42.4776 60.8893L67.5226 52.7366C78.5841 49.1358 82.8242 43.3694 80.2428 35.4376C78.8842 31.2629 76.5074 28.747 73.1124 27.89C69.7878 26.8946 65.3601 27.2971 59.8294 29.0975L34.7844 37.2502L42.4776 60.8893ZM57.6093 107.385L82.9673 99.1301C95.6986 94.9858 100.587 88.3737 97.6317 79.2938C94.6427 70.1095 86.7826 67.5895 74.0514 71.7338L48.6933 79.9884L57.6093 107.385Z"/>
    <path d="M37.6639 140L2 30.4148L56.0033 12.8355C67.3779 9.13276 76.8557 8.64454 84.4367 11.3708C91.9837 13.9927 96.9461 18.9565 99.3237 26.2622C101.599 33.2547 100.791 39.6354 96.8976 45.4042C92.9706 51.0687 86.8839 55.4162 78.6374 58.4469L81.2868 66.5875C90.8509 63.705 99.2342 63.3999 106.437 65.6723C113.605 67.8403 118.497 72.9424 121.112 80.9787C123.966 89.7455 122.641 97.91 117.139 105.472C111.637 113.035 102.677 118.837 90.2585 122.879L37.6639 140ZM39.9055 66.0341L64.9505 57.8814C76.012 54.2806 80.2521 48.5143 77.6707 40.5824C76.3121 36.4077 73.9353 33.8918 70.5403 33.0348C67.2157 32.0394 62.7881 32.4419 57.2573 34.2423L32.2123 42.3951L39.9055 66.0341ZM55.0372 112.53L80.3953 104.275C93.1265 100.131 98.0146 93.5185 95.0596 84.4386C92.0706 75.2543 84.2105 72.7343 71.4793 76.8786L46.1212 85.1333L55.0372 112.53Z"/>
    </mask>
    <path d="M16.688 197V174.6H27.728C30.0533 174.6 31.8347 175.08 33.072 176.04C34.3093 176.979 34.928 178.195 34.928 179.688C34.928 181.117 34.3947 182.248 33.328 183.08C32.2613 183.891 30.8747 184.328 29.168 184.392V186.056C31.1093 186.099 32.6773 186.547 33.872 187.4C35.0667 188.232 35.664 189.469 35.664 191.112C35.664 192.904 34.928 194.333 33.456 195.4C31.984 196.467 29.9787 197 27.44 197H16.688ZM21.552 183.464H26.672C28.9333 183.464 30.064 182.653 30.064 181.032C30.064 180.179 29.776 179.571 29.2 179.208C28.6453 178.824 27.8027 178.632 26.672 178.632H21.552V183.464ZM21.552 192.968H26.736C29.3387 192.968 30.64 192.04 30.64 190.184C30.64 188.307 29.3387 187.368 26.736 187.368H21.552V192.968Z" fill="#292627"/>
    <path d="M39.208 197V181H43.304C43.304 182.707 42.8453 184.328 41.928 185.864H43.848C44.2533 184.051 44.8507 182.739 45.64 181.928C46.4293 181.096 47.6347 180.68 49.256 180.68C49.7893 180.68 50.1093 180.691 50.216 180.712V185.384C49.5973 185.32 49.0107 185.288 48.456 185.288C46.7493 185.288 45.5333 185.693 44.808 186.504C44.104 187.315 43.752 188.765 43.752 190.856V197H39.208Z" fill="#292627"/>
    <path d="M52.766 178.824V174.536H57.598V178.824H52.766ZM52.926 197V181H57.47V197H52.926Z" fill="#292627"/>
    <path d="M73.705 197L68.713 190.344L66.377 192.616V197H61.833V174.6H66.377V181.672C66.377 183.144 66.1957 184.264 65.833 185.032C65.4917 185.8 64.905 186.536 64.073 187.24L65.289 188.552L72.809 181H78.377L71.849 187.336L79.433 197H73.705Z" fill="#292627"/>
    <path d="M78.7138 189C78.7138 186.483 79.5031 184.445 81.0817 182.888C82.6604 181.309 84.6764 180.52 87.1298 180.52C89.6044 180.52 91.6204 181.309 93.1777 182.888C94.7564 184.445 95.5458 186.483 95.5458 189C95.5458 191.56 94.7671 193.619 93.2097 195.176C91.6524 196.733 89.6258 197.512 87.1298 197.512C84.7191 197.512 82.7137 196.712 81.1137 195.112C79.5137 193.491 78.7138 191.453 78.7138 189ZM89.8177 192.68C90.4791 191.848 90.8098 190.643 90.8098 189.064C90.8098 187.485 90.4791 186.269 89.8177 185.416C89.1777 184.541 88.2818 184.104 87.1298 184.104C85.9778 184.104 85.0711 184.541 84.4098 185.416C83.7698 186.269 83.4498 187.485 83.4498 189.064C83.4498 190.643 83.7698 191.848 84.4098 192.68C85.0711 193.491 85.9778 193.896 87.1298 193.896C88.2818 193.896 89.1777 193.491 89.8177 192.68Z" fill="#292627"/>
    <path d="M98.8643 197V174.6H103.408V197H98.8643Z" fill="#292627"/>
    <path d="M107.641 178.824V174.536H112.473V178.824H107.641ZM107.801 197V181H112.345V197H107.801Z" fill="#292627"/>
    <path d="M41.09 131.363L5.42611 21.7782L59.4294 4.19881C70.804 0.496103 80.2818 0.00788236 87.8628 2.73415C95.4099 5.35604 100.372 10.3198 102.75 17.6255C105.025 24.6181 104.217 30.9988 100.324 36.7676C96.3967 42.432 90.31 46.7796 82.0636 49.8102L84.7129 57.9508C94.277 55.0683 102.66 54.7633 109.863 57.0356C117.031 59.2036 121.923 64.3057 124.539 72.342C127.392 81.1088 126.067 89.2734 120.565 96.8356C115.063 104.398 106.103 110.2 93.6846 114.243L41.09 131.363ZM43.3316 57.3975L68.3766 49.2447C79.4382 45.6439 83.6782 39.8776 81.0968 31.9457C79.7382 27.7711 77.3614 25.2552 73.9664 24.3981C70.6418 23.4027 66.2142 23.8053 60.6834 25.6057L35.6384 33.7584L43.3316 57.3975ZM58.4633 103.893L83.8214 95.6383C96.5526 91.4939 101.441 84.8818 98.4857 75.8019C95.4967 66.6176 87.6366 64.0976 74.9054 68.242L49.5473 76.4966L58.4633 103.893Z" fill="#F87E4A"/>
    <path d="M40.236 134.855L4.57209 25.27L58.5754 7.69065C69.95 3.98794 79.4278 3.49972 87.0088 6.22599C94.5558 8.84788 99.5182 13.8117 101.896 21.1173C104.171 28.1099 103.363 34.4906 99.4697 40.2594C95.5427 45.9238 89.456 50.2714 81.2095 53.3021L83.8589 61.4427C93.423 58.5602 101.806 58.2551 109.009 60.5275C116.177 62.6955 121.069 67.7976 123.685 75.8338C126.538 84.6007 125.213 92.7652 119.711 100.327C114.209 107.89 105.249 113.692 92.8305 117.734L40.236 134.855ZM42.4776 60.8893L67.5226 52.7366C78.5841 49.1358 82.8242 43.3694 80.2428 35.4376C78.8842 31.2629 76.5074 28.747 73.1124 27.89C69.7878 26.8946 65.3601 27.2971 59.8294 29.0975L34.7844 37.2502L42.4776 60.8893ZM57.6093 107.385L82.9673 99.1301C95.6986 94.9858 100.587 88.3737 97.6317 79.2938C94.6427 70.1095 86.7826 67.5895 74.0514 71.7338L48.6933 79.9884L57.6093 107.385Z" fill="#455E87"/>
    <path d="M37.6639 140L2 30.4148L56.0033 12.8355C67.3779 9.13276 76.8557 8.64454 84.4367 11.3708C91.9837 13.9927 96.9461 18.9565 99.3237 26.2622C101.599 33.2547 100.791 39.6354 96.8976 45.4042C92.9706 51.0687 86.8839 55.4162 78.6374 58.4469L81.2868 66.5875C90.8509 63.705 99.2342 63.3999 106.437 65.6723C113.605 67.8403 118.497 72.9424 121.112 80.9787C123.966 89.7455 122.641 97.91 117.139 105.472C111.637 113.035 102.677 118.837 90.2585 122.879L37.6639 140ZM39.9055 66.0341L64.9505 57.8814C76.012 54.2806 80.2521 48.5143 77.6707 40.5824C76.3121 36.4077 73.9353 33.8918 70.5403 33.0348C67.2157 32.0394 62.7881 32.4419 57.2573 34.2423L32.2123 42.3951L39.9055 66.0341ZM55.0372 112.53L80.3953 104.275C93.1265 100.131 98.0146 93.5185 95.0596 84.4386C92.0706 75.2543 84.2105 72.7343 71.4793 76.8786L46.1212 85.1333L55.0372 112.53Z" fill="#1E293B"/>
    <path d="M16.688 197V174.6H27.728C30.0533 174.6 31.8347 175.08 33.072 176.04C34.3093 176.979 34.928 178.195 34.928 179.688C34.928 181.117 34.3947 182.248 33.328 183.08C32.2613 183.891 30.8747 184.328 29.168 184.392V186.056C31.1093 186.099 32.6773 186.547 33.872 187.4C35.0667 188.232 35.664 189.469 35.664 191.112C35.664 192.904 34.928 194.333 33.456 195.4C31.984 196.467 29.9787 197 27.44 197H16.688ZM21.552 183.464H26.672C28.9333 183.464 30.064 182.653 30.064 181.032C30.064 180.179 29.776 179.571 29.2 179.208C28.6453 178.824 27.8027 178.632 26.672 178.632H21.552V183.464ZM21.552 192.968H26.736C29.3387 192.968 30.64 192.04 30.64 190.184C30.64 188.307 29.3387 187.368 26.736 187.368H21.552V192.968Z" stroke="black" stroke-width="2" mask="url(#path-1-outside-1_13_1030)"/>
    <path d="M39.208 197V181H43.304C43.304 182.707 42.8453 184.328 41.928 185.864H43.848C44.2533 184.051 44.8507 182.739 45.64 181.928C46.4293 181.096 47.6347 180.68 49.256 180.68C49.7893 180.68 50.1093 180.691 50.216 180.712V185.384C49.5973 185.32 49.0107 185.288 48.456 185.288C46.7493 185.288 45.5333 185.693 44.808 186.504C44.104 187.315 43.752 188.765 43.752 190.856V197H39.208Z" stroke="black" stroke-width="2" mask="url(#path-1-outside-1_13_1030)"/>
    <path d="M52.766 178.824V174.536H57.598V178.824H52.766ZM52.926 197V181H57.47V197H52.926Z" stroke="black" stroke-width="2" mask="url(#path-1-outside-1_13_1030)"/>
    <path d="M73.705 197L68.713 190.344L66.377 192.616V197H61.833V174.6H66.377V181.672C66.377 183.144 66.1957 184.264 65.833 185.032C65.4917 185.8 64.905 186.536 64.073 187.24L65.289 188.552L72.809 181H78.377L71.849 187.336L79.433 197H73.705Z" stroke="black" stroke-width="2" mask="url(#path-1-outside-1_13_1030)"/>
    <path d="M78.7138 189C78.7138 186.483 79.5031 184.445 81.0817 182.888C82.6604 181.309 84.6764 180.52 87.1298 180.52C89.6044 180.52 91.6204 181.309 93.1777 182.888C94.7564 184.445 95.5458 186.483 95.5458 189C95.5458 191.56 94.7671 193.619 93.2097 195.176C91.6524 196.733 89.6258 197.512 87.1298 197.512C84.7191 197.512 82.7137 196.712 81.1137 195.112C79.5137 193.491 78.7138 191.453 78.7138 189ZM89.8177 192.68C90.4791 191.848 90.8098 190.643 90.8098 189.064C90.8098 187.485 90.4791 186.269 89.8177 185.416C89.1777 184.541 88.2818 184.104 87.1298 184.104C85.9778 184.104 85.0711 184.541 84.4098 185.416C83.7698 186.269 83.4498 187.485 83.4498 189.064C83.4498 190.643 83.7698 191.848 84.4098 192.68C85.0711 193.491 85.9778 193.896 87.1298 193.896C88.2818 193.896 89.1777 193.491 89.8177 192.68Z" stroke="black" stroke-width="2" mask="url(#path-1-outside-1_13_1030)"/>
    <path d="M98.8643 197V174.6H103.408V197H98.8643Z" stroke="black" stroke-width="2" mask="url(#path-1-outside-1_13_1030)"/>
    <path d="M107.641 178.824V174.536H112.473V178.824H107.641ZM107.801 197V181H112.345V197H107.801Z" stroke="black" stroke-width="2" mask="url(#path-1-outside-1_13_1030)"/>
    <path d="M41.09 131.363L5.42611 21.7782L59.4294 4.19881C70.804 0.496103 80.2818 0.00788236 87.8628 2.73415C95.4099 5.35604 100.372 10.3198 102.75 17.6255C105.025 24.6181 104.217 30.9988 100.324 36.7676C96.3967 42.432 90.31 46.7796 82.0636 49.8102L84.7129 57.9508C94.277 55.0683 102.66 54.7633 109.863 57.0356C117.031 59.2036 121.923 64.3057 124.539 72.342C127.392 81.1088 126.067 89.2734 120.565 96.8356C115.063 104.398 106.103 110.2 93.6846 114.243L41.09 131.363ZM43.3316 57.3975L68.3766 49.2447C79.4382 45.6439 83.6782 39.8776 81.0968 31.9457C79.7382 27.7711 77.3614 25.2552 73.9664 24.3981C70.6418 23.4027 66.2142 23.8053 60.6834 25.6057L35.6384 33.7584L43.3316 57.3975ZM58.4633 103.893L83.8214 95.6383C96.5526 91.4939 101.441 84.8818 98.4857 75.8019C95.4967 66.6176 87.6366 64.0976 74.9054 68.242L49.5473 76.4966L58.4633 103.893Z" stroke="black" stroke-width="2" mask="url(#path-1-outside-1_13_1030)"/>
    <path d="M40.236 134.855L4.57209 25.27L58.5754 7.69065C69.95 3.98794 79.4278 3.49972 87.0088 6.22599C94.5558 8.84788 99.5182 13.8117 101.896 21.1173C104.171 28.1099 103.363 34.4906 99.4697 40.2594C95.5427 45.9238 89.456 50.2714 81.2095 53.3021L83.8589 61.4427C93.423 58.5602 101.806 58.2551 109.009 60.5275C116.177 62.6955 121.069 67.7976 123.685 75.8338C126.538 84.6007 125.213 92.7652 119.711 100.327C114.209 107.89 105.249 113.692 92.8305 117.734L40.236 134.855ZM42.4776 60.8893L67.5226 52.7366C78.5841 49.1358 82.8242 43.3694 80.2428 35.4376C78.8842 31.2629 76.5074 28.747 73.1124 27.89C69.7878 26.8946 65.3601 27.2971 59.8294 29.0975L34.7844 37.2502L42.4776 60.8893ZM57.6093 107.385L82.9673 99.1301C95.6986 94.9858 100.587 88.3737 97.6317 79.2938C94.6427 70.1095 86.7826 67.5895 74.0514 71.7338L48.6933 79.9884L57.6093 107.385Z" stroke="black" stroke-width="2" mask="url(#path-1-outside-1_13_1030)"/>
    <path d="M37.6639 140L2 30.4148L56.0033 12.8355C67.3779 9.13276 76.8557 8.64454 84.4367 11.3708C91.9837 13.9927 96.9461 18.9565 99.3237 26.2622C101.599 33.2547 100.791 39.6354 96.8976 45.4042C92.9706 51.0687 86.8839 55.4162 78.6374 58.4469L81.2868 66.5875C90.8509 63.705 99.2342 63.3999 106.437 65.6723C113.605 67.8403 118.497 72.9424 121.112 80.9787C123.966 89.7455 122.641 97.91 117.139 105.472C111.637 113.035 102.677 118.837 90.2585 122.879L37.6639 140ZM39.9055 66.0341L64.9505 57.8814C76.012 54.2806 80.2521 48.5143 77.6707 40.5824C76.3121 36.4077 73.9353 33.8918 70.5403 33.0348C67.2157 32.0394 62.7881 32.4419 57.2573 34.2423L32.2123 42.3951L39.9055 66.0341ZM55.0372 112.53L80.3953 104.275C93.1265 100.131 98.0146 93.5185 95.0596 84.4386C92.0706 75.2543 84.2105 72.7343 71.4793 76.8786L46.1212 85.1333L55.0372 112.53Z" stroke="black" stroke-width="2" mask="url(#path-1-outside-1_13_1030)"/>
    </svg>
    