<svg width="57" height="66" viewBox="0 0 57 66" fill="none" xmlns="http://www.w3.org/2000/svg">
    <path d="M16.1816 54.3456L2.31591 11.7454L23.3118 4.91156C27.7341 3.47217 31.4189 3.28238 34.3663 4.34219C37.3005 5.36143 39.2298 7.29106 40.1542 10.1311C41.039 12.8494 40.7246 15.3298 39.211 17.5724C37.6842 19.7744 35.3178 21.4644 32.1116 22.6426L33.1417 25.8072C36.8601 24.6866 40.1194 24.568 42.9197 25.4514C45.7067 26.2942 47.6086 28.2776 48.6254 31.4016C49.7347 34.8096 49.2197 37.9835 47.0806 40.9233C44.9414 43.863 41.4578 46.1187 36.6298 47.6901L16.1816 54.3456ZM17.0531 25.5921L26.7903 22.4228C31.0909 21.023 32.7394 18.7814 31.7358 15.6979C31.2076 14.0751 30.2835 13.097 28.9636 12.7639C27.671 12.3769 25.9496 12.5334 23.7993 13.2333L14.0621 16.4026L17.0531 25.5921ZM22.9361 43.6668L32.7951 40.4578C37.7448 38.8468 39.6452 36.2764 38.4964 32.7466C37.3343 29.1763 34.2784 28.1967 29.3286 29.8078L19.4697 33.0167L22.9361 43.6668Z" fill="#F87E4A"/>
    <path d="M15.8496 55.7031L1.98388 13.1028L22.9797 6.26898C27.402 4.82959 31.0869 4.6398 34.0343 5.69961C36.9685 6.71885 38.8978 8.64848 39.8222 11.4885C40.7069 14.2068 40.3925 16.6872 38.879 18.9298C37.3522 21.1318 34.9857 22.8219 31.7796 24L32.8096 27.1646C36.5281 26.0441 39.7874 25.9255 42.5876 26.8088C45.3747 27.6516 47.2766 29.635 48.2934 32.759C49.4027 36.1671 48.8877 39.341 46.7485 42.2807C44.6094 45.2205 41.1257 47.4761 36.2977 49.0475L15.8496 55.7031ZM16.7211 26.9495L26.4583 23.7802C30.7589 22.3804 32.4074 20.1388 31.4038 17.0554C30.8755 15.4325 29.9515 14.4545 28.6315 14.1213C27.339 13.7343 25.6176 13.8908 23.4673 14.5907L13.7301 17.76L16.7211 26.9495ZM22.6041 45.0242L32.463 41.8153C37.4128 40.2042 39.3132 37.6338 38.1643 34.1041C37.0023 30.5337 33.9463 29.5541 28.9966 31.1652L19.1377 34.3741L22.6041 45.0242Z" fill="#455E87"/>
    <path d="M14.8496 57.7031L0.983881 15.1028L21.9797 8.26898C26.402 6.82959 30.0869 6.6398 33.0343 7.69961C35.9685 8.71885 37.8978 10.6485 38.8222 13.4885C39.7069 16.2068 39.3925 18.6872 37.879 20.9298C36.3522 23.1318 33.9857 24.8219 30.7796 26L31.8096 29.1646C35.5281 28.0441 38.7874 27.9255 41.5876 28.8088C44.3747 29.6516 46.2766 31.635 47.2934 34.759C48.4027 38.1671 47.8877 41.341 45.7485 44.2807C43.6094 47.2205 40.1257 49.4761 35.2977 51.0475L14.8496 57.7031ZM15.7211 28.9495L25.4583 25.7802C29.7589 24.3804 31.4074 22.1388 30.4038 19.0554C29.8755 17.4325 28.9515 16.4545 27.6315 16.1213C26.339 15.7343 24.6176 15.8908 22.4673 16.5907L12.7301 19.76L15.7211 28.9495ZM21.6041 47.0242L31.463 43.8153C36.4128 42.2042 38.3132 39.6338 37.1643 36.1041C36.0023 32.5337 32.9463 31.5541 27.9966 33.1652L18.1377 36.3741L21.6041 47.0242Z" fill="#1E293B"/>
    </svg>
    